<mxfile host="Electron" agent="Mozilla/5.0 (Macintosh; Intel Mac OS X 10_15_7) AppleWebKit/537.36 (KHTML, like Gecko) draw.io/24.7.8 Chrome/128.0.6613.36 Electron/32.0.1 Safari/537.36" version="24.7.8">
  <diagram id="C5RBs43oDa-KdzZeNtuy" name="Page-1">
    <mxGraphModel dx="984" dy="747" grid="1" gridSize="10" guides="1" tooltips="1" connect="1" arrows="1" fold="1" page="1" pageScale="1" pageWidth="827" pageHeight="1169" math="0" shadow="0">
      <root>
        <mxCell id="WIyWlLk6GJQsqaUBKTNV-0" />
        <mxCell id="WIyWlLk6GJQsqaUBKTNV-1" parent="WIyWlLk6GJQsqaUBKTNV-0" />
        <mxCell id="_s0sH0QgfzXVqrT1ycy4-2" style="edgeStyle=orthogonalEdgeStyle;rounded=0;orthogonalLoop=1;jettySize=auto;html=1;exitX=0.5;exitY=1;exitDx=0;exitDy=0;entryX=0.5;entryY=0;entryDx=0;entryDy=0;" edge="1" parent="WIyWlLk6GJQsqaUBKTNV-1" source="Fh875M8rBoiKSEa5mBYI-0" target="_s0sH0QgfzXVqrT1ycy4-0">
          <mxGeometry relative="1" as="geometry" />
        </mxCell>
        <mxCell id="Fh875M8rBoiKSEa5mBYI-0" value="로또 번호 추첨 시작" style="ellipse;whiteSpace=wrap;html=1;" parent="WIyWlLk6GJQsqaUBKTNV-1" vertex="1">
          <mxGeometry x="40" y="40" width="120" height="80" as="geometry" />
        </mxCell>
        <mxCell id="Fh875M8rBoiKSEa5mBYI-6" value="" style="edgeStyle=orthogonalEdgeStyle;rounded=0;orthogonalLoop=1;jettySize=auto;html=1;" parent="WIyWlLk6GJQsqaUBKTNV-1" target="Fh875M8rBoiKSEa5mBYI-5" edge="1">
          <mxGeometry relative="1" as="geometry">
            <mxPoint x="100" y="260" as="sourcePoint" />
          </mxGeometry>
        </mxCell>
        <mxCell id="Fh875M8rBoiKSEa5mBYI-8" value="" style="edgeStyle=orthogonalEdgeStyle;rounded=0;orthogonalLoop=1;jettySize=auto;html=1;" parent="WIyWlLk6GJQsqaUBKTNV-1" source="Fh875M8rBoiKSEa5mBYI-5" target="Fh875M8rBoiKSEa5mBYI-7" edge="1">
          <mxGeometry relative="1" as="geometry" />
        </mxCell>
        <mxCell id="Fh875M8rBoiKSEa5mBYI-5" value="1~45 범위의 난수 1개 생성" style="whiteSpace=wrap;html=1;" parent="WIyWlLk6GJQsqaUBKTNV-1" vertex="1">
          <mxGeometry x="40" y="340" width="120" height="60" as="geometry" />
        </mxCell>
        <mxCell id="Fh875M8rBoiKSEa5mBYI-10" value="" style="edgeStyle=orthogonalEdgeStyle;rounded=0;orthogonalLoop=1;jettySize=auto;html=1;" parent="WIyWlLk6GJQsqaUBKTNV-1" source="Fh875M8rBoiKSEa5mBYI-7" target="Fh875M8rBoiKSEa5mBYI-9" edge="1">
          <mxGeometry relative="1" as="geometry" />
        </mxCell>
        <mxCell id="Fh875M8rBoiKSEa5mBYI-7" value="set에 번호 추가" style="whiteSpace=wrap;html=1;" parent="WIyWlLk6GJQsqaUBKTNV-1" vertex="1">
          <mxGeometry x="40" y="480" width="120" height="60" as="geometry" />
        </mxCell>
        <mxCell id="Fh875M8rBoiKSEa5mBYI-11" style="edgeStyle=orthogonalEdgeStyle;rounded=0;orthogonalLoop=1;jettySize=auto;html=1;exitX=1;exitY=0.5;exitDx=0;exitDy=0;entryX=1;entryY=0.5;entryDx=0;entryDy=0;" parent="WIyWlLk6GJQsqaUBKTNV-1" source="Fh875M8rBoiKSEa5mBYI-9" target="Fh875M8rBoiKSEa5mBYI-5" edge="1">
          <mxGeometry relative="1" as="geometry">
            <Array as="points">
              <mxPoint x="200" y="650" />
              <mxPoint x="200" y="370" />
            </Array>
          </mxGeometry>
        </mxCell>
        <mxCell id="Fh875M8rBoiKSEa5mBYI-14" value="아니오" style="edgeLabel;html=1;align=center;verticalAlign=middle;resizable=0;points=[];" parent="Fh875M8rBoiKSEa5mBYI-11" vertex="1" connectable="0">
          <mxGeometry x="0.0632" relative="1" as="geometry">
            <mxPoint as="offset" />
          </mxGeometry>
        </mxCell>
        <mxCell id="Fh875M8rBoiKSEa5mBYI-16" value="" style="edgeStyle=orthogonalEdgeStyle;rounded=0;orthogonalLoop=1;jettySize=auto;html=1;" parent="WIyWlLk6GJQsqaUBKTNV-1" source="Fh875M8rBoiKSEa5mBYI-9" edge="1">
          <mxGeometry relative="1" as="geometry">
            <mxPoint x="100" y="780" as="targetPoint" />
          </mxGeometry>
        </mxCell>
        <mxCell id="Fh875M8rBoiKSEa5mBYI-17" value="예" style="edgeLabel;html=1;align=center;verticalAlign=middle;resizable=0;points=[];" parent="Fh875M8rBoiKSEa5mBYI-16" vertex="1" connectable="0">
          <mxGeometry x="-0.1333" relative="1" as="geometry">
            <mxPoint as="offset" />
          </mxGeometry>
        </mxCell>
        <mxCell id="Fh875M8rBoiKSEa5mBYI-9" value="set의 element의 갯수가 6개인가?" style="rhombus;whiteSpace=wrap;html=1;" parent="WIyWlLk6GJQsqaUBKTNV-1" vertex="1">
          <mxGeometry x="40" y="610" width="120" height="80" as="geometry" />
        </mxCell>
        <mxCell id="Fh875M8rBoiKSEa5mBYI-21" value="" style="edgeStyle=orthogonalEdgeStyle;rounded=0;orthogonalLoop=1;jettySize=auto;html=1;" parent="WIyWlLk6GJQsqaUBKTNV-1" edge="1">
          <mxGeometry relative="1" as="geometry">
            <mxPoint x="100" y="910" as="targetPoint" />
            <mxPoint x="100" y="840" as="sourcePoint" />
          </mxGeometry>
        </mxCell>
        <mxCell id="Fh875M8rBoiKSEa5mBYI-22" value="로또 번호 생성 완료" style="ellipse;whiteSpace=wrap;html=1;" parent="WIyWlLk6GJQsqaUBKTNV-1" vertex="1">
          <mxGeometry x="40" y="910" width="120" height="80" as="geometry" />
        </mxCell>
        <mxCell id="_s0sH0QgfzXVqrT1ycy4-0" value="난수 저장 하는&lt;div&gt;set 변수 생성&lt;/div&gt;" style="shape=hexagon;perimeter=hexagonPerimeter2;whiteSpace=wrap;html=1;fixedSize=1;" vertex="1" parent="WIyWlLk6GJQsqaUBKTNV-1">
          <mxGeometry x="40" y="200" width="120" height="60" as="geometry" />
        </mxCell>
        <mxCell id="_s0sH0QgfzXVqrT1ycy4-1" value="set의 elements 출력" style="shape=document;whiteSpace=wrap;html=1;boundedLbl=1;" vertex="1" parent="WIyWlLk6GJQsqaUBKTNV-1">
          <mxGeometry x="40" y="780" width="120" height="70" as="geometry" />
        </mxCell>
      </root>
    </mxGraphModel>
  </diagram>
</mxfile>
